<svg width="24" height="24" viewBox="0 0 24 24" fill="none" xmlns="http://www.w3.org/2000/svg">
<path d="M8.70711 9.29289C8.31658 8.90237 7.68342 8.90237 7.29289 9.29289C6.90237 9.68342 6.90237 10.3166 7.29289 10.7071L8.70711 9.29289ZM12 14L11.2929 14.7071C11.6834 15.0976 12.3166 15.0976 12.7071 14.7071L12 14ZM22.7071 4.70711C23.0976 4.31658 23.0976 3.68342 22.7071 3.29289C22.3166 2.90237 21.6834 2.90237 21.2929 3.29289L22.7071 4.70711ZM6 5H18V3H6V5ZM19 6V18H21V6H19ZM18 19H6V21H18V19ZM5 18V6H3V18H5ZM7.29289 10.7071L11.2929 14.7071L12.7071 13.2929L8.70711 9.29289L7.29289 10.7071ZM12.7071 14.7071L22.7071 4.70711L21.2929 3.29289L11.2929 13.2929L12.7071 14.7071ZM6 19C5.44772 19 5 18.5523 5 18H3C3 19.6569 4.34315 21 6 21V19ZM19 18C19 18.5523 18.5523 19 18 19V21C19.6569 21 21 19.6569 21 18H19ZM18 5C18.5523 5 19 5.44772 19 6H21C21 4.34315 19.6569 3 18 3V5ZM6 3C4.34315 3 3 4.34315 3 6H5C5 5.44772 5.44772 5 6 5V3Z" fill="#26252B"/>
</svg>
