<svg width="16" height="16" viewBox="0 0 16 16" fill="none" xmlns="http://www.w3.org/2000/svg">
<path fill-rule="evenodd" clip-rule="evenodd" d="M13 2H3V3H1.5C1.22386 3 1 3.22386 1 3.5C1 4.43254 1.204 5.14799 1.5468 5.6872C1.89077 6.22824 2.35171 6.55588 2.80362 6.74888C2.87716 6.78029 2.95048 6.80816 3.02308 6.83286C3.21459 8.78726 4.58138 10.4518 6.5 11L6.19407 12.8356C6.18484 12.891 6.18033 12.9459 6.18021 13H6C5 13 5 13.7239 5 14H5.5H7.17521C7.17696 14 7.17871 14 7.18047 14H8.81955C8.82059 14 8.82163 14 8.82268 14H10.5H11C11 13.7239 11 13 10 13H9.81979C9.81968 12.9459 9.81516 12.891 9.80593 12.8356L9.5 11C11.4186 10.4518 12.7854 8.78728 12.9769 6.83286C13.0495 6.80815 13.1228 6.78029 13.1964 6.74889C13.6483 6.55589 14.1092 6.22824 14.4532 5.68721C14.796 5.148 15 4.43254 15 3.5C15 3.22386 14.7761 3 14.5 3H13V2ZM13 5.73207V4H13.9745C13.919 4.51517 13.7786 4.8844 13.6093 5.15069C13.4393 5.41817 13.2265 5.60316 13 5.73207ZM3 4V5.73206C2.77351 5.60316 2.56075 5.41817 2.3907 5.15069C2.2214 4.8844 2.08102 4.51517 2.02552 4H3Z" fill="#26252B"/>
</svg>
