<svg width="24" height="24" viewBox="0 0 24 24" fill="none" xmlns="http://www.w3.org/2000/svg">
<path d="M12 15L11.2929 15.7071C11.4804 15.8946 11.7348 16 12 16C12.2652 16 12.5196 15.8946 12.7071 15.7071L12 15ZM13 5C13 4.44771 12.5523 4 12 4C11.4477 4 11 4.44771 11 5H13ZM15.7071 12.7071C16.0976 12.3166 16.0976 11.6834 15.7071 11.2929C15.3166 10.9024 14.6834 10.9024 14.2929 11.2929L15.7071 12.7071ZM9.70711 11.2929C9.31658 10.9024 8.68342 10.9024 8.29289 11.2929C7.90237 11.6834 7.90237 12.3166 8.29289 12.7071L9.70711 11.2929ZM20 15C20 14.4477 19.5523 14 19 14C18.4477 14 18 14.4477 18 15H20ZM19 19V20C19.2652 20 19.5196 19.8946 19.7071 19.7071C19.8946 19.5196 20 19.2652 20 19H19ZM5 19H4C4 19.5523 4.44771 20 5 20V19ZM6 15C6 14.4477 5.55228 14 5 14C4.44771 14 4 14.4477 4 15H6ZM13 15V5H11V15H13ZM12.7071 15.7071L15.7071 12.7071L14.2929 11.2929L11.2929 14.2929L12.7071 15.7071ZM12.7071 14.2929L9.70711 11.2929L8.29289 12.7071L11.2929 15.7071L12.7071 14.2929ZM18 15V19H20V15H18ZM19 18H5V20H19V18ZM6 19V15H4V19H6Z" fill="#EF1126"/>
</svg>
