<svg width="24" height="24" viewBox="0 0 24 24" fill="none" xmlns="http://www.w3.org/2000/svg">
<path d="M20 12L20.7071 12.7071C21.0976 12.3166 21.0976 11.6834 20.7071 11.2929L20 12ZM10 11C9.44772 11 9 11.4477 9 12C9 12.5523 9.44772 13 10 13V11ZM17.7071 8.29289C17.3166 7.90237 16.6834 7.90237 16.2929 8.29289C15.9024 8.68342 15.9024 9.31658 16.2929 9.70711L17.7071 8.29289ZM16.2929 14.2929C15.9024 14.6834 15.9024 15.3166 16.2929 15.7071C16.6834 16.0976 17.3166 16.0976 17.7071 15.7071L16.2929 14.2929ZM16 6C16.5523 6 17 5.55228 17 5C17 4.44772 16.5523 4 16 4V6ZM6 5V4C5.44772 4 5 4.44772 5 5H6ZM6 19H5C5 19.5523 5.44772 20 6 20V19ZM16 20C16.5523 20 17 19.5523 17 19C17 18.4477 16.5523 18 16 18V20ZM20 11H10V13H20V11ZM20.7071 11.2929L17.7071 8.29289L16.2929 9.70711L19.2929 12.7071L20.7071 11.2929ZM19.2929 11.2929L16.2929 14.2929L17.7071 15.7071L20.7071 12.7071L19.2929 11.2929ZM16 4H6V6H16V4ZM5 5V19H7V5H5ZM6 20H16V18H6V20Z" fill="#26252B"/>
</svg>
