<svg width="16" height="16" viewBox="0 0 16 16" fill="none" xmlns="http://www.w3.org/2000/svg">
<path d="M3.5 16H11.5V13L13 12V10L7.5 7H4.5C4.22386 7 4 6.77614 4 6.5C4 6.22386 4.22386 6 4.5 6H7.5C7.5 6 8.39052 5.19526 8 5C7 4.5 3.5 2.5 3.5 2.5L1 6.5L4.5 11.5L3.5 16Z" fill="#26252B"/>
<path d="M5.5 0L4 2L6 3L7.5 1L5.5 0Z" fill="#26252B"/>
<path d="M6.5 3.5L8 1.5L10 2.5L8.5 4.5L6.5 3.5Z" fill="#26252B"/>
<path d="M8 6.5L10.5 3L12.5 4L10 7.5L8 6.5Z" fill="#26252B"/>
<path d="M11 8L13 5L14.5 6.5L13 9L11 8Z" fill="#26252B"/>
</svg>
