<svg width="24" height="24" viewBox="0 0 24 24" fill="none" xmlns="http://www.w3.org/2000/svg">
<path d="M18 15V16V15ZM18 9H19C19 8.44772 18.5523 8 18 8V9ZM6 9V8C5.44772 8 5 8.44771 5 9H6ZM12 3V2V3ZM10 2C9.44771 2 9 2.44771 9 3C9 3.55228 9.44771 4 10 4V2ZM14 4C14.5523 4 15 3.55228 15 3C15 2.44771 14.5523 2 14 2V4ZM3 15V14C2.44772 14 2 14.4477 2 15H3ZM9 15H10C10 14.4477 9.55228 14 9 14V15ZM15 15V14C14.7348 14 14.4804 14.1054 14.2929 14.2929C14.1054 14.4804 14 14.7348 14 15H15ZM21 15H22C22 14.4477 21.5523 14 21 14V15ZM22 22C22.5523 22 23 21.5523 23 21C23 20.4477 22.5523 20 22 20V22ZM20 20C19.4477 20 19 20.4477 19 21C19 21.5523 19.4477 22 20 22V20ZM16 22C16.5523 22 17 21.5523 17 21C17 20.4477 16.5523 20 16 20V22ZM14 20C13.4477 20 13 20.4477 13 21C13 21.5523 13.4477 22 14 22V20ZM10 22C10.5523 22 11 21.5523 11 21C11 20.4477 10.5523 20 10 20V22ZM8 20C7.44771 20 7 20.4477 7 21C7 21.5523 7.44771 22 8 22V20ZM2 20C1.44772 20 1 20.4477 1 21C1 21.5523 1.44771 22 2 22V20ZM3.5 22C4.05228 22 4.5 21.5523 4.5 21C4.5 20.4477 4.05228 20 3.5 20V22ZM19 15V9H17V15H19ZM5 9V15H7V9H5ZM18 8H12V10H18V8ZM12 8H6V10H12V8ZM13 9V3H11V9H13ZM12 2H10V4H12V2ZM12 4H14V2H12V4ZM3 16H6V14H3V16ZM9 14H6V16H9V14ZM18 14H15V16H18V14ZM18 16H21V14H18V16ZM2 15V21H4V15H2ZM8 15V21H10V15H8ZM14 15V21H16V15H14ZM20 15V21H22V15H20ZM21 22H22V20H21V22ZM21 20H20V22H21V20ZM15 22H16V20H15V22ZM15 20H14V22H15V20ZM9 22H10V20H9V22ZM9 20H8V22H9V20ZM3 20H2V22H3V20ZM3 22H3.5V20H3V22Z" fill="#26252B"/>
</svg>
