<svg width="24" height="24" viewBox="0 0 24 24" fill="none" xmlns="http://www.w3.org/2000/svg">
<path d="M3 5V4C2.44772 4 2 4.44772 2 5H3ZM21 5H22C22 4.44772 21.5523 4 21 4V5ZM21 19V20C21.5523 20 22 19.5523 22 19H21ZM3 19H2C2 19.5523 2.44772 20 3 20V19ZM12 14L11.2929 14.7071C11.6834 15.0976 12.3166 15.0976 12.7071 14.7071L12 14ZM3 6H21V4H3V6ZM20 5V19H22V5H20ZM21 18H3V20H21V18ZM4 19V5H2V19H4ZM2.29289 5.70711L11.2929 14.7071L12.7071 13.2929L3.70711 4.29289L2.29289 5.70711ZM12.7071 14.7071L21.7071 5.70711L20.2929 4.29289L11.2929 13.2929L12.7071 14.7071Z" fill="#26252B"/>
</svg>
