<svg width="24" height="24" viewBox="0 0 24 24" fill="none" xmlns="http://www.w3.org/2000/svg">
<path d="M5 5C4.44772 5 4 5.44772 4 6C4 6.55228 4.44772 7 5 7V5ZM6 7C6.55228 7 7 6.55228 7 6C7 5.44772 6.55228 5 6 5V7ZM9 5C8.44772 5 8 5.44772 8 6C8 6.55228 8.44772 7 9 7V5ZM19 7C19.5523 7 20 6.55228 20 6C20 5.44772 19.5523 5 19 5V7ZM5 9C4.44772 9 4 9.44772 4 10C4 10.5523 4.44772 11 5 11V9ZM6 11C6.55228 11 7 10.5523 7 10C7 9.44772 6.55228 9 6 9V11ZM9 9C8.44772 9 8 9.44772 8 10C8 10.5523 8.44772 11 9 11V9ZM19 11C19.5523 11 20 10.5523 20 10C20 9.44772 19.5523 9 19 9V11ZM5 13C4.44772 13 4 13.4477 4 14C4 14.5523 4.44772 15 5 15V13ZM6 15C6.55228 15 7 14.5523 7 14C7 13.4477 6.55228 13 6 13V15ZM9 13C8.44772 13 8 13.4477 8 14C8 14.5523 8.44772 15 9 15V13ZM19 15C19.5523 15 20 14.5523 20 14C20 13.4477 19.5523 13 19 13V15ZM5 17C4.44772 17 4 17.4477 4 18C4 18.5523 4.44772 19 5 19V17ZM6 19C6.55228 19 7 18.5523 7 18C7 17.4477 6.55228 17 6 17V19ZM9 17C8.44772 17 8 17.4477 8 18C8 18.5523 8.44772 19 9 19V17ZM19 19C19.5523 19 20 18.5523 20 18C20 17.4477 19.5523 17 19 17V19ZM5 7H6V5H5V7ZM9 7H19V5H9V7ZM5 11H6V9H5V11ZM9 11H19V9H9V11ZM5 15H6V13H5V15ZM9 15H19V13H9V15ZM5 19H6V17H5V19ZM9 19H19V17H9V19Z" fill="#26252B"/>
</svg>
