<svg width="16" height="16" viewBox="0 0 16 16" fill="none" xmlns="http://www.w3.org/2000/svg">
<path d="M0 2C0 0.895431 0.895431 0 2 0H14C15.1046 0 16 0.895431 16 2V14C16 15.1046 15.1046 16 14 16H2C0.895431 16 0 15.1046 0 14V2Z" fill="#ECECEC"/>
<path d="M8.51183 12V10.032H5.13983V9.096L8.16383 4.368H9.80783V8.964H10.7678V10.032H9.80783V12H8.51183ZM6.50783 8.964H8.51183V7.236C8.51183 7.012 8.51583 6.748 8.52383 6.444C8.53983 6.14 8.55583 5.876 8.57183 5.652H8.52383C8.42783 5.852 8.32783 6.048 8.22383 6.24C8.11983 6.432 8.01183 6.632 7.89983 6.84L6.50783 8.964Z" fill="#26252B"/>
</svg>
