<svg width="16" height="12" viewBox="0 0 16 12" fill="none" xmlns="http://www.w3.org/2000/svg">
<path fill-rule="evenodd" clip-rule="evenodd" d="M6.57394e-05 1.98361L6.24282 5.45181L8 6.42802L9.75718 5.45181L15.9999 1.98361C15.9911 0.886588 15.0991 0 14 0H2C0.900898 0 0.00887001 0.886588 6.57394e-05 1.98361ZM16 3.12753L11.0079 5.90095L16 8.83284V3.12753ZM16 9.99255L9.99311 6.4647L8.24282 7.43708C8.09181 7.52097 7.90819 7.52097 7.75718 7.43708L6.00689 6.4647L0 9.99255V10C0 11.1046 0.895431 12 2 12H14C15.1046 12 16 11.1046 16 10V9.99255ZM0 8.83284L4.99215 5.90095L0 3.12754V8.83284Z" fill="#26252B"/>
</svg>
