<svg width="24" height="24" viewBox="0 0 24 24" fill="none" xmlns="http://www.w3.org/2000/svg">
<path d="M13 21C13 21.5523 13.4477 22 14 22C14.5523 22 15 21.5523 15 21H13ZM14 17L13.2929 16.2929C13.1054 16.4804 13 16.7348 13 17H14ZM16 15L16.7071 15.7071C16.8946 15.5196 17 15.2652 17 15H16ZM8 15H7C7 15.2652 7.10536 15.5196 7.29289 15.7071L8 15ZM10 17H11C11 16.7348 10.8946 16.4804 10.7071 16.2929L10 17ZM9 21C9 21.5523 9.44772 22 10 22C10.5523 22 11 21.5523 11 21H9ZM21 16L21.7071 16.7071C21.8946 16.5196 22 16.2652 22 16H21ZM19 18L18.2929 17.2929C18.1054 17.4804 18 17.7348 18 18H19ZM18 21C18 21.5523 18.4477 22 19 22C19.5523 22 20 21.5523 20 21H18ZM3 16H2C2 16.2652 2.10536 16.5196 2.29289 16.7071L3 16ZM5 18H6C6 17.7348 5.89464 17.4804 5.70711 17.2929L5 18ZM4 21C4 21.5523 4.44772 22 5 22C5.55228 22 6 21.5523 6 21H4ZM15 21V17H13V21H15ZM14.7071 17.7071L16.7071 15.7071L15.2929 14.2929L13.2929 16.2929L14.7071 17.7071ZM14 7H10V9H14V7ZM7.29289 15.7071L9.29289 17.7071L10.7071 16.2929L8.70711 14.2929L7.29289 15.7071ZM9 17V21H11V17H9ZM17 15V10H15V15H17ZM16 11H19V9H16V11ZM20 12V16H22V12H20ZM20.2929 15.2929L18.2929 17.2929L19.7071 18.7071L21.7071 16.7071L20.2929 15.2929ZM18 18V21H20V18H18ZM7 10V15H9V10H7ZM8 9H5V11H8V9ZM2 12V16H4V12H2ZM2.29289 16.7071L4.29289 18.7071L5.70711 17.2929L3.70711 15.2929L2.29289 16.7071ZM4 18V21H6V18H4ZM5 9C3.34315 9 2 10.3431 2 12H4C4 11.4477 4.44772 11 5 11V9ZM19 11C19.5523 11 20 11.4477 20 12H22C22 10.3431 20.6569 9 19 9V11ZM10 7C8.34315 7 7 8.34315 7 10H9C9 9.44772 9.44772 9 10 9V7ZM14 9C14.5523 9 15 9.44772 15 10H17C17 8.34315 15.6569 7 14 7V9Z" fill="#26252B"/>
<path fill-rule="evenodd" clip-rule="evenodd" d="M12 3C11.4477 3 11 3.44772 11 4C11 4.55228 11.4477 5 12 5C12.5523 5 13 4.55228 13 4C13 3.44772 12.5523 3 12 3ZM9 4C9 2.34315 10.3431 1 12 1C13.6569 1 15 2.34315 15 4C15 5.65685 13.6569 7 12 7C10.3431 7 9 5.65685 9 4Z" fill="#26252B"/>
<path fill-rule="evenodd" clip-rule="evenodd" d="M17.5 5C17.2239 5 17 5.22386 17 5.5C17 5.77614 17.2239 6 17.5 6C17.7761 6 18 5.77614 18 5.5C18 5.22386 17.7761 5 17.5 5ZM15 5.5C15 4.11929 16.1193 3 17.5 3C18.8807 3 20 4.11929 20 5.5C20 6.88071 18.8807 8 17.5 8C16.1193 8 15 6.88071 15 5.5Z" fill="#26252B"/>
<path fill-rule="evenodd" clip-rule="evenodd" d="M6.5 5C6.22386 5 6 5.22386 6 5.5C6 5.77614 6.22386 6 6.5 6C6.77614 6 7 5.77614 7 5.5C7 5.22386 6.77614 5 6.5 5ZM4 5.5C4 4.11929 5.11929 3 6.5 3C7.88071 3 9 4.11929 9 5.5C9 6.88071 7.88071 8 6.5 8C5.11929 8 4 6.88071 4 5.5Z" fill="#26252B"/>
</svg>
