<svg width="17" height="17" viewBox="0 0 17 17" fill="none" xmlns="http://www.w3.org/2000/svg">
<path fill-rule="evenodd" clip-rule="evenodd" d="M14.0103 11.4748C12.0091 13.476 9.12598 13.9979 6.84719 12.9811C5.96418 12.587 5.57196 13.302 5.01396 14.3193H5.01395C4.64504 14.9918 4.20366 15.7964 3.5001 16.5C2.43944 17.5606 0.729263 16.5786 0.575254 16.4246C0.421245 16.2706 -0.560559 14.5606 0.500102 13.5C1.05602 12.9441 1.78166 12.5406 2.43713 12.1762C3.53005 11.5687 4.42791 11.0695 4.01876 10.1526C3.35477 8.66464 3.34687 6.919 3.97851 5.32946C5.0271 6.04935 6.4721 5.94336 7.40396 5.01149C8.35512 4.06033 8.44585 2.57456 7.67613 1.52141C9.96335 0.531274 12.6138 0.885953 14.3638 2.63599C16.707 4.97913 16.5487 8.93641 14.0103 11.4748ZM4.0857 4.44262C4.86675 5.22366 6.13308 5.22366 6.91413 4.44262C7.69518 3.66157 7.69518 2.39524 6.91413 1.61419C6.13308 0.833145 4.86675 0.833145 4.0857 1.61419C3.30465 2.39524 3.30465 3.66157 4.0857 4.44262Z" fill="#26252B"/>
</svg>
