<svg width="24" height="24" viewBox="0 0 24 24" fill="none" xmlns="http://www.w3.org/2000/svg">
<path d="M19.1056 21.4472C19.3526 21.9412 19.9532 22.1414 20.4472 21.8944C20.9412 21.6474 21.1414 21.0468 20.8944 20.5528L19.1056 21.4472ZM3.10557 20.5528C2.85858 21.0468 3.05881 21.6474 3.55279 21.8944C4.04676 22.1414 4.64744 21.9412 4.89443 21.4472L3.10557 20.5528ZM16 8C16 10.2091 14.2091 12 12 12V14C15.3137 14 18 11.3137 18 8H16ZM12 12C9.79086 12 8 10.2091 8 8H6C6 11.3137 8.68629 14 12 14V12ZM8 8C8 5.79086 9.79086 4 12 4V2C8.68629 2 6 4.68629 6 8H8ZM12 4C14.2091 4 16 5.79086 16 8H18C18 4.68629 15.3137 2 12 2V4ZM20 21C20.8944 20.5528 20.8942 20.5522 20.8939 20.5517C20.8938 20.5515 20.8935 20.5509 20.8933 20.5505C20.8929 20.5497 20.8924 20.5488 20.8919 20.5478C20.891 20.546 20.8899 20.5438 20.8887 20.5414C20.8862 20.5367 20.8833 20.5309 20.8798 20.5243C20.8728 20.5109 20.8636 20.4938 20.8523 20.4732C20.8296 20.4319 20.7981 20.3766 20.7571 20.3091C20.6753 20.1744 20.5556 19.9908 20.3937 19.775C20.0703 19.3438 19.5756 18.7799 18.8747 18.2191C17.4602 17.0875 15.2429 16 12 16V18C14.7571 18 16.5398 18.9125 17.6253 19.7809C18.1744 20.2201 18.5547 20.6562 18.7937 20.975C18.9131 21.1342 18.9966 21.2631 19.0476 21.3471C19.073 21.3891 19.0903 21.4196 19.0999 21.437C19.1046 21.4457 19.1075 21.451 19.1084 21.4528C19.1089 21.4537 19.1089 21.4537 19.1084 21.4528C19.1081 21.4523 19.1078 21.4516 19.1073 21.4507C19.1071 21.4502 19.1068 21.4497 19.1065 21.4491C19.1064 21.4488 19.1061 21.4484 19.1061 21.4482C19.1058 21.4477 19.1056 21.4472 20 21ZM12 16C8.75708 16 6.53983 17.0875 5.1253 18.2191C4.42438 18.7799 3.92968 19.3438 3.60625 19.775C3.44437 19.9908 3.32468 20.1744 3.24287 20.3091C3.20194 20.3766 3.17039 20.4319 3.14771 20.4732C3.13637 20.4938 3.12723 20.5109 3.12023 20.5243C3.11673 20.5309 3.11376 20.5367 3.11132 20.5414C3.1101 20.5438 3.10902 20.546 3.10806 20.5478C3.10758 20.5488 3.10713 20.5497 3.10672 20.5505C3.10651 20.5509 3.10622 20.5515 3.10612 20.5517C3.10584 20.5522 3.10557 20.5528 4 21C4.89443 21.4472 4.89417 21.4477 4.89392 21.4482C4.89385 21.4484 4.89361 21.4488 4.89347 21.4491C4.89317 21.4497 4.89291 21.4502 4.89268 21.4507C4.89221 21.4516 4.89186 21.4523 4.89162 21.4528C4.89115 21.4537 4.89114 21.4537 4.89161 21.4528C4.89255 21.451 4.89537 21.4457 4.90014 21.437C4.90969 21.4196 4.92697 21.3891 4.95244 21.3471C5.00344 21.2631 5.08688 21.1342 5.20625 20.975C5.44532 20.6562 5.82562 20.2201 6.3747 19.7809C7.46017 18.9125 9.24292 18 12 18V16Z" fill="#26252B"/>
</svg>
